<svg width="124" height="34" viewBox="0 0 124 34" fill="none" xmlns="http://www.w3.org/2000/svg">
<path d="M12.06 26.112C10.596 26.112 9.204 25.86 7.884 25.356L6.192 27.624C7.776 28.008 9.516 28.404 11.412 28.812C13.332 29.244 15.228 29.652 17.1 30.036C17.94 30.204 18.6 30.276 19.08 30.252C19.56 30.252 20.016 30.132 20.448 29.892L21.636 29.208L22.104 29.892L20.232 31.8C19.704 32.352 19.188 32.784 18.684 33.096C18.18 33.408 17.58 33.564 16.884 33.564C16.404 33.564 15.708 33.492 14.796 33.348C13.908 33.204 12.912 33.024 11.808 32.808C10.728 32.592 9.636 32.364 8.532 32.124C7.428 31.884 6.432 31.668 5.544 31.476C5.136 31.38 4.752 31.356 4.392 31.404C4.056 31.476 3.732 31.644 3.42 31.908L2.844 32.376L2.124 31.908L6.696 24.816C4.968 23.904 3.54 22.512 2.412 20.64C1.308 18.768 0.756 16.416 0.756 13.584C0.756 11.544 1.068 9.744 1.692 8.184C2.316 6.624 3.156 5.316 4.212 4.26C5.292 3.204 6.504 2.412 7.848 1.884C9.216 1.332 10.62 1.056 12.06 1.056C13.5 1.056 14.892 1.32 16.236 1.848C17.604 2.376 18.816 3.168 19.872 4.224C20.928 5.256 21.768 6.552 22.392 8.112C23.016 9.672 23.328 11.496 23.328 13.584C23.328 15.624 23.016 17.424 22.392 18.984C21.768 20.544 20.928 21.852 19.872 22.908C18.816 23.964 17.616 24.768 16.272 25.32C14.928 25.848 13.524 26.112 12.06 26.112ZM12.06 25.032C13.428 25.032 14.532 24.684 15.372 23.988C16.212 23.268 16.824 22.068 17.208 20.388C17.592 18.708 17.784 16.44 17.784 13.584C17.784 10.728 17.592 8.472 17.208 6.816C16.824 5.136 16.212 3.948 15.372 3.252C14.532 2.532 13.428 2.172 12.06 2.172C10.716 2.172 9.612 2.532 8.748 3.252C7.908 3.948 7.296 5.136 6.912 6.816C6.528 8.472 6.336 10.728 6.336 13.584C6.336 16.44 6.528 18.708 6.912 20.388C7.296 22.068 7.908 23.268 8.748 23.988C9.612 24.684 10.716 25.032 12.06 25.032ZM23.6543 25.5V24.816L24.1943 24.672C24.9863 24.408 25.3823 23.808 25.3823 22.872C25.3823 22.056 25.3823 21.24 25.3823 20.424C25.4063 19.584 25.4183 18.756 25.4183 17.94V4.26C25.4183 3.756 25.3343 3.384 25.1663 3.144C24.9983 2.88 24.6743 2.688 24.1943 2.568L23.6543 2.424V1.74L29.9543 0.227999L30.4223 0.551999L30.2783 5.628V22.872C30.3023 23.352 30.3983 23.748 30.5663 24.06C30.7583 24.348 31.0823 24.552 31.5383 24.672L32.0423 24.816V25.5H23.6543ZM41.5921 7.68C43.1041 7.68 44.4001 7.992 45.4801 8.616C46.5601 9.24 47.3881 10.104 47.9641 11.208C48.5641 12.288 48.8641 13.536 48.8641 14.952C48.8641 15.264 48.8521 15.564 48.8281 15.852C48.8041 16.116 48.7561 16.368 48.6841 16.608H37.8481C37.8721 19.08 38.3281 20.856 39.2161 21.936C40.1281 23.016 41.4481 23.556 43.1761 23.556C44.3761 23.556 45.3481 23.364 46.0921 22.98C46.8361 22.572 47.5201 22.008 48.1441 21.288L48.7201 21.828C48.0001 23.148 47.0161 24.18 45.7681 24.924C44.5441 25.644 43.0801 26.004 41.3761 26.004C39.6721 26.004 38.1721 25.644 36.8761 24.924C35.5801 24.204 34.5601 23.172 33.8161 21.828C33.0961 20.46 32.7361 18.828 32.7361 16.932C32.7361 14.964 33.1561 13.296 33.9961 11.928C34.8601 10.56 35.9641 9.516 37.3081 8.796C38.6761 8.052 40.1041 7.68 41.5921 7.68ZM41.4121 8.724C40.7161 8.724 40.1041 8.928 39.5761 9.336C39.0721 9.72 38.6641 10.416 38.3521 11.424C38.0641 12.408 37.8961 13.8 37.8481 15.6H44.2921C44.5561 13.176 44.4601 11.424 44.0041 10.344C43.5481 9.264 42.6841 8.724 41.4121 8.724ZM56.7858 25.608L51.2778 10.632C51.1338 10.2 50.9298 9.876 50.6658 9.66C50.4258 9.42 50.1018 9.228 49.6938 9.084L49.0818 8.904V8.22H57.6858V8.904L57.1098 9.048C56.1978 9.288 55.8978 9.864 56.2098 10.776L59.4858 20.568L62.5098 12.54L61.9698 10.92C61.8018 10.416 61.6218 10.02 61.4298 9.732C61.2618 9.444 61.0098 9.24 60.6738 9.12L60.0618 8.904V8.22H67.4778V8.904L66.9738 9.084C66.5898 9.228 66.3498 9.432 66.2538 9.696C66.1818 9.936 66.2298 10.296 66.3978 10.776L69.6018 20.352L72.8418 10.812C73.1298 9.876 72.9138 9.312 72.1938 9.12L71.4738 8.904V8.22H76.2978V8.904L75.5058 9.12C75.0978 9.24 74.7858 9.42 74.5698 9.66C74.3538 9.9 74.1738 10.236 74.0298 10.668L68.8458 25.608H66.9738L63.0498 14.124L58.8018 25.608H56.7858ZM80.863 26.004C79.495 26.004 78.331 25.62 77.371 24.852C76.435 24.06 75.967 22.932 75.967 21.468C75.967 20.316 76.519 19.26 77.623 18.3C78.751 17.316 80.515 16.596 82.915 16.14C83.323 16.044 83.791 15.96 84.319 15.888C84.871 15.792 85.411 15.696 85.939 15.6V13.044C85.939 11.412 85.735 10.284 85.327 9.66C84.919 9.036 84.271 8.724 83.383 8.724H83.275C82.723 8.724 82.279 8.904 81.943 9.264C81.631 9.6 81.427 10.164 81.331 10.956L81.223 11.424C81.151 12.384 80.899 13.092 80.467 13.548C80.035 13.98 79.495 14.196 78.847 14.196C78.247 14.196 77.743 14.016 77.335 13.656C76.951 13.272 76.759 12.78 76.759 12.18C76.759 11.196 77.095 10.368 77.767 9.696C78.439 9.024 79.327 8.52 80.431 8.184C81.559 7.848 82.771 7.68 84.067 7.68C86.203 7.68 87.835 8.196 88.963 9.228C90.091 10.26 90.655 11.94 90.655 14.268V22.296C90.655 23.328 91.147 23.844 92.131 23.844H92.959L93.319 24.24C92.887 24.792 92.407 25.212 91.879 25.5C91.351 25.812 90.631 25.968 89.719 25.968C88.687 25.968 87.859 25.728 87.235 25.248C86.635 24.744 86.239 24.084 86.047 23.268C85.279 24.084 84.523 24.744 83.779 25.248C83.035 25.752 82.063 26.004 80.863 26.004ZM82.951 23.7C83.431 23.7 83.887 23.592 84.319 23.376C84.751 23.16 85.291 22.8 85.939 22.296V16.536C85.315 16.632 84.679 16.752 84.031 16.896C82.999 17.136 82.159 17.58 81.511 18.228C80.887 18.876 80.575 19.752 80.575 20.856C80.575 21.816 80.791 22.536 81.223 23.016C81.679 23.472 82.255 23.7 82.951 23.7ZM92.9497 25.5V24.816L93.4897 24.636C93.9697 24.516 94.2937 24.312 94.4617 24.024C94.6537 23.736 94.7497 23.352 94.7497 22.872V12.324C94.7257 11.796 94.6297 11.4 94.4617 11.136C94.2937 10.848 93.9697 10.656 93.4897 10.56L92.9497 10.416V9.768L98.8177 7.68L99.2497 8.076L99.5737 11.244V11.496C99.9337 10.824 100.39 10.2 100.942 9.624C101.494 9.048 102.094 8.58 102.742 8.22C103.39 7.86 104.038 7.68 104.686 7.68C105.598 7.68 106.282 7.92 106.738 8.4C107.194 8.88 107.422 9.492 107.422 10.236C107.422 11.052 107.194 11.676 106.738 12.108C106.282 12.516 105.73 12.72 105.082 12.72C104.122 12.72 103.294 12.288 102.598 11.424L102.526 11.352C102.286 11.064 102.01 10.908 101.698 10.884C101.41 10.836 101.122 10.98 100.834 11.316C100.594 11.556 100.366 11.844 100.15 12.18C99.9577 12.492 99.7777 12.864 99.6097 13.296V22.728C99.6097 23.184 99.7057 23.568 99.8977 23.88C100.09 24.168 100.414 24.372 100.87 24.492L101.95 24.816V25.5H92.9497ZM115.987 7.68C117.499 7.68 118.795 7.992 119.875 8.616C120.955 9.24 121.783 10.104 122.359 11.208C122.959 12.288 123.259 13.536 123.259 14.952C123.259 15.264 123.247 15.564 123.223 15.852C123.199 16.116 123.151 16.368 123.079 16.608H112.243C112.267 19.08 112.723 20.856 113.611 21.936C114.523 23.016 115.843 23.556 117.571 23.556C118.771 23.556 119.743 23.364 120.487 22.98C121.231 22.572 121.915 22.008 122.539 21.288L123.115 21.828C122.395 23.148 121.411 24.18 120.163 24.924C118.939 25.644 117.475 26.004 115.771 26.004C114.067 26.004 112.567 25.644 111.271 24.924C109.975 24.204 108.955 23.172 108.211 21.828C107.491 20.46 107.131 18.828 107.131 16.932C107.131 14.964 107.551 13.296 108.391 11.928C109.255 10.56 110.359 9.516 111.703 8.796C113.071 8.052 114.499 7.68 115.987 7.68ZM115.807 8.724C115.111 8.724 114.499 8.928 113.971 9.336C113.467 9.72 113.059 10.416 112.747 11.424C112.459 12.408 112.291 13.8 112.243 15.6H118.687C118.951 13.176 118.855 11.424 118.399 10.344C117.943 9.264 117.079 8.724 115.807 8.724Z" fill="white"/>
</svg>
